REM DIRINDEX 1\2,1\3,1\4,1\5,1\6,1\7,1\8
REM DIRNAME folder01,folder02,folder03,folder04,folder05,folder06,folder07,folder08
TITLE ""
FILE "03_Ch1_IntheMorning_Tweets.mp3" MP3
  TRACK 01 AUDIO
    TITLE "0:"
    INDEX 01 00:00:00
  TRACK 02 AUDIO
    TITLE "8:cjc152_0141"
    INDEX 01 00:00:27
  TRACK 03 AUDIO
    TITLE "0:"
    INDEX 01 00:03:17
  TRACK 04 AUDIO
    TITLE "8:cjc152_0142"
    INDEX 01 00:04:11
  TRACK 05 AUDIO
    TITLE "0:"
    INDEX 01 00:05:54
  TRACK 06 AUDIO
    TITLE "4:cjc152_0143"
    INDEX 01 00:06:43
  TRACK 07 AUDIO
    TITLE "0:"
    INDEX 01 00:09:12
  TRACK 08 AUDIO
    TITLE "4:cjc152_0144"
    INDEX 01 00:10:04
  TRACK 09 AUDIO
    TITLE "0:"
    INDEX 01 00:13:35
  TRACK 10 AUDIO
    TITLE "4:cjc152_0145"
    INDEX 01 00:15:15
  TRACK 11 AUDIO
    TITLE "0:"
    INDEX 01 00:18:39
  TRACK 12 AUDIO
    TITLE "4:cjc152_0146"
    INDEX 01 00:19:40
  TRACK 13 AUDIO
    TITLE "0:"
    INDEX 01 00:22:46
  TRACK 14 AUDIO
    TITLE "4:cjc152_0147"
    INDEX 01 00:24:33
  TRACK 15 AUDIO
    TITLE "0:"
    INDEX 01 00:26:28
  TRACK 16 AUDIO
    TITLE "4:cjc152_0148"
    INDEX 01 00:27:34
  TRACK 17 AUDIO
    TITLE "0:"
    INDEX 01 00:30:20
  TRACK 18 AUDIO
    TITLE "4:cjc152_0149"
    INDEX 01 00:32:00
  TRACK 19 AUDIO
    TITLE "0:"
    INDEX 01 00:35:10
  TRACK 20 AUDIO
    TITLE "4:cjc152_0150"
    INDEX 01 00:36:03
  TRACK 21 AUDIO
    TITLE "0:"
    INDEX 01 00:40:73
  TRACK 22 AUDIO
    TITLE "4:cjc152_0151"
    INDEX 01 00:42:51
  TRACK 23 AUDIO
    TITLE "0:"
    INDEX 01 00:45:71
  TRACK 24 AUDIO
    TITLE "4:cjc152_0152"
    INDEX 01 00:46:64
  TRACK 25 AUDIO
    TITLE "0:"
    INDEX 01 00:51:09
  TRACK 26 AUDIO
    TITLE "4:cjc152_0153"
    INDEX 01 00:52:61
  TRACK 27 AUDIO
    TITLE "0:"
    INDEX 01 00:55:18
  TRACK 28 AUDIO
    TITLE "4:cjc152_0154"
    INDEX 01 00:56:12
  TRACK 29 AUDIO
    TITLE "0:"
    INDEX 01 00:58:46
  TRACK 30 AUDIO
    TITLE "4:cjc152_0155"
    INDEX 01 01:00:41
  TRACK 31 AUDIO
    TITLE "0:"
    INDEX 01 01:04:64
  TRACK 32 AUDIO
    TITLE "4:cjc152_0156"
    INDEX 01 01:05:68
  TRACK 33 AUDIO
    TITLE "0:"
    INDEX 01 01:09:36
  TRACK 34 AUDIO
    TITLE "4:cjc152_0157"
    INDEX 01 01:11:21
  TRACK 35 AUDIO
    TITLE "0:"
    INDEX 01 01:14:21
  TRACK 36 AUDIO
    TITLE "4:cjc152_0158"
    INDEX 01 01:15:15
  TRACK 37 AUDIO
    TITLE "0:"
    INDEX 01 01:18:39
  TRACK 38 AUDIO
    TITLE "4:cjc152_0159"
    INDEX 01 01:20:16
  TRACK 39 AUDIO
    TITLE "0:"
    INDEX 01 01:23:16
  TRACK 40 AUDIO
    TITLE "4:cjc152_0160"
    INDEX 01 01:24:10
  TRACK 41 AUDIO
    TITLE "0:"
    INDEX 01 01:27:32
  TRACK 42 AUDIO
    TITLE "4:cjc152_0161"
    INDEX 01 01:29:05
  TRACK 43 AUDIO
    TITLE "0:"
    INDEX 01 01:31:49
  TRACK 44 AUDIO
    TITLE "4:cjc152_0162"
    INDEX 01 01:32:47
  TRACK 45 AUDIO
    TITLE "0:"
    INDEX 01 01:36:21
  TRACK 46 AUDIO
    TITLE "4:cjc152_0163"
    INDEX 01 01:38:02
  TRACK 47 AUDIO
    TITLE "0:"
    INDEX 01 01:41:56
  TRACK 48 AUDIO
    TITLE "4:cjc152_0164"
    INDEX 01 01:42:43
  TRACK 49 AUDIO
    TITLE "0:"
    INDEX 01 01:47:70
  TRACK 50 AUDIO
    TITLE "4:cjc152_0165"
    INDEX 01 01:49:47
  TRACK 51 AUDIO
    TITLE "0:"
    INDEX 01 01:52:53
  TRACK 52 AUDIO
    TITLE "4:cjc152_0166"
    INDEX 01 01:53:47
  TRACK 53 AUDIO
    TITLE "0:"
    INDEX 01 01:56:36
  TRACK 54 AUDIO
    TITLE "4:cjc152_0167"
    INDEX 01 01:58:13
  TRACK 55 AUDIO
    TITLE "0:"
    INDEX 01 02:00:04
  TRACK 56 AUDIO
    TITLE "4:cjc152_0168"
    INDEX 01 02:00:71
  TRACK 57 AUDIO
    TITLE "0:"
    INDEX 01 02:02:69
  TRACK 58 AUDIO
    TITLE "4:cjc152_0169"
    INDEX 01 02:04:53
  TRACK 59 AUDIO
    TITLE "0:"
    INDEX 01 02:06:54
  TRACK 60 AUDIO
    TITLE "4:cjc152_0170"
    INDEX 01 02:07:47
  TRACK 61 AUDIO
    TITLE "0:"
    INDEX 01 02:09:66
  TRACK 62 AUDIO
    TITLE "4:cjc152_0171"
    INDEX 01 02:11:41
  TRACK 63 AUDIO
    TITLE "0:"
    INDEX 01 02:13:56
  TRACK 64 AUDIO
    TITLE "4:cjc152_0172"
    INDEX 01 02:14:45
  TRACK 65 AUDIO
    TITLE "0:"
    INDEX 01 02:17:14
  TRACK 66 AUDIO
    TITLE "4:cjc152_0173"
    INDEX 01 02:18:72
  TRACK 67 AUDIO
    TITLE "0:"
    INDEX 01 02:23:07
  TRACK 68 AUDIO
    TITLE "4:cjc152_0174"
    INDEX 01 02:23:74
  TRACK 69 AUDIO
    TITLE "0:"
    INDEX 01 02:29:06
  TRACK 70 AUDIO
    TITLE "4:cjc152_0175"
    INDEX 01 02:30:56
  TRACK 71 AUDIO
    TITLE "0:"
    INDEX 01 02:33:46
  TRACK 72 AUDIO
    TITLE "4:cjc152_0176"
    INDEX 01 02:34:40
  TRACK 73 AUDIO
    TITLE "0:"
    INDEX 01 02:38:55
  TRACK 74 AUDIO
    TITLE "4:cjc152_0177"
    INDEX 01 02:40:33
  TRACK 75 AUDIO
    TITLE "0:"
    INDEX 01 02:43:70
  TRACK 76 AUDIO
    TITLE "4:cjc152_0178"
    INDEX 01 02:44:64
  TRACK 77 AUDIO
    TITLE "0:"
    INDEX 01 02:47:52
  TRACK 78 AUDIO
    TITLE "4:cjc152_0179"
    INDEX 01 02:49:30
  TRACK 79 AUDIO
    TITLE "0:"
    INDEX 01 02:54:35
  TRACK 80 AUDIO
    TITLE "4:cjc152_0180"
    INDEX 01 02:55:28
  TRACK 81 AUDIO
    TITLE "0:"
    INDEX 01 03:01:17
  TRACK 82 AUDIO
    TITLE "4:cjc152_0181"
    INDEX 01 03:02:68
  TRACK 83 AUDIO
    TITLE "0:"
    INDEX 01 03:05:50
  TRACK 84 AUDIO
    TITLE "4:cjc152_0182"
    INDEX 01 03:06:50
  TRACK 85 AUDIO
    TITLE "0:"
    INDEX 01 03:09:70
  TRACK 86 AUDIO
    TITLE "4:cjc152_0183"
    INDEX 01 03:11:47
  TRACK 87 AUDIO
    TITLE "0:"
    INDEX 01 03:14:02
  TRACK 88 AUDIO
    TITLE "4:cjc152_0184"
    INDEX 01 03:14:71
  TRACK 89 AUDIO
    TITLE "0:"
    INDEX 01 03:18:04
  TRACK 90 AUDIO
    TITLE "4:cjc152_0185"
    INDEX 01 03:19:54
  TRACK 91 AUDIO
    TITLE "0:"
    INDEX 01 03:23:29
  TRACK 92 AUDIO
    TITLE "4:cjc152_0186"
    INDEX 01 03:24:20
  TRACK 93 AUDIO
    TITLE "0:"
    INDEX 01 03:28:44
  TRACK 94 AUDIO
    TITLE "4:cjc152_0187"
    INDEX 01 03:30:19
  TRACK 95 AUDIO
    TITLE "0:"
    INDEX 01 03:32:41
  TRACK 96 AUDIO
    TITLE "4:cjc152_0188"
    INDEX 01 03:33:33
  TRACK 97 AUDIO
    TITLE "0:"
    INDEX 01 03:36:04
  TRACK 98 AUDIO
    TITLE "4:cjc152_0189"
    INDEX 01 03:37:54
  TRACK 99 AUDIO
    TITLE "0:"
    INDEX 01 03:40:17
  TRACK 100 AUDIO
    TITLE "4:cjc152_0190"
    INDEX 01 03:41:11
  TRACK 101 AUDIO
    TITLE "0:"
    INDEX 01 03:45:21
  TRACK 102 AUDIO
    TITLE "4:cjc152_0191"
    INDEX 01 03:46:73
  TRACK 103 AUDIO
    TITLE "0:"
    INDEX 01 03:50:30
  TRACK 104 AUDIO
    TITLE "4:cjc152_0192"
    INDEX 01 03:51:23
  TRACK 105 AUDIO
    TITLE "0:"
    INDEX 01 03:56:03
  TRACK 106 AUDIO
    TITLE "4:cjc152_0193"
    INDEX 01 03:57:55
  TRACK 107 AUDIO
    TITLE "0:"
    INDEX 01 04:00:02
  TRACK 108 AUDIO
    TITLE "4:cjc152_0194"
    INDEX 01 04:00:71
  TRACK 109 AUDIO
    TITLE "0:"
    INDEX 01 04:04:36
  TRACK 110 AUDIO
    TITLE "4:cjc152_0195"
    INDEX 01 04:06:13
  TRACK 111 AUDIO
    TITLE "0:"
    INDEX 01 04:08:10
  TRACK 112 AUDIO
    TITLE "4:cjc152_0196"
    INDEX 01 04:09:03
  TRACK 113 AUDIO
    TITLE "0:"
    INDEX 01 04:11:08
  TRACK 114 AUDIO
    TITLE "4:cjc152_0197"
    INDEX 01 04:12:60
  TRACK 115 AUDIO
    TITLE "0:"
    INDEX 01 04:15:73
  TRACK 116 AUDIO
    TITLE "4:cjc152_0198"
    INDEX 01 04:16:62
  TRACK 117 AUDIO
    TITLE "0:"
    INDEX 01 04:20:15
  TRACK 118 AUDIO
    TITLE "4:cjc152_0199"
    INDEX 01 04:21:69
  TRACK 119 AUDIO
    TITLE "0:"
    INDEX 01 04:26:70
  TRACK 120 AUDIO
    TITLE "4:cjc152_0200"
    INDEX 01 04:27:64
  TRACK 121 AUDIO
    TITLE "0:"
    INDEX 01 04:33:65
  TRACK 122 AUDIO
    TITLE "4:cjc152_0201"
    INDEX 01 04:35:40
  TRACK 123 AUDIO
    TITLE "0:"
    INDEX 01 04:39:46
  TRACK 124 AUDIO
    TITLE "4:cjc152_0202"
    INDEX 01 04:40:39
  TRACK 125 AUDIO
    TITLE "0:"
    INDEX 01 04:46:16
  TRACK 126 AUDIO
    TITLE "4:cjc152_0203"
    INDEX 01 04:47:71
  TRACK 127 AUDIO
    TITLE "0:"
    INDEX 01 04:51:68
  TRACK 128 AUDIO
    TITLE "4:cjc152_0204"
    INDEX 01 04:53:09
  TRACK 129 AUDIO
    TITLE "0:"
    INDEX 01 04:57:65
  TRACK 130 AUDIO
    TITLE "4:cjc152_0205"
    INDEX 01 04:59:42
  TRACK 131 AUDIO
    TITLE "0:"
    INDEX 01 05:03:64
  TRACK 132 AUDIO
    TITLE "4:cjc152_0206"
    INDEX 01 05:04:57
  TRACK 133 AUDIO
    TITLE "0:"
    INDEX 01 05:09:11
  TRACK 134 AUDIO
    TITLE "4:cjc152_0207"
    INDEX 01 05:10:64
  TRACK 135 AUDIO
    TITLE "0:"
    INDEX 01 05:16:74
  TRACK 136 AUDIO
    TITLE "4:cjc152_0208"
    INDEX 01 05:18:01
  TRACK 137 AUDIO
    TITLE "0:"
    INDEX 01 05:24:33
  TRACK 138 AUDIO
    TITLE "4:cjc152_0209"
    INDEX 01 05:26:08
  TRACK 139 AUDIO
    TITLE "0:"
    INDEX 01 05:28:23
  TRACK 140 AUDIO
    TITLE "4:cjc152_0210"
    INDEX 01 05:29:16
  TRACK 141 AUDIO
    TITLE "0:"
    INDEX 01 05:32:30
  TRACK 142 AUDIO
    TITLE "4:cjc152_0211"
    INDEX 01 05:34:37
  TRACK 143 AUDIO
    TITLE "0:"
    INDEX 01 05:37:51
  TRACK 144 AUDIO
    TITLE "4:cjc152_0212"
    INDEX 01 05:38:39
  TRACK 145 AUDIO
    TITLE "0:"
    INDEX 01 05:42:25
  TRACK 146 AUDIO
    TITLE "4:cjc152_0213"
    INDEX 01 05:44:00
  TRACK 147 AUDIO
    TITLE "0:"
    INDEX 01 05:48:29
  TRACK 148 AUDIO
    TITLE "4:cjc152_0214"
    INDEX 01 05:49:29
  TRACK 149 AUDIO
    TITLE "0:"
    INDEX 01 05:54:00
